<svg xmlns="http://www.w3.org/2000/svg" viewBox="0 0 1800 1100"><defs><radialGradient id="a" cx="73%" cy="34%" r="78%"><stop offset="0" stop-color="#39717a"/><stop offset=".45" stop-color="#17333f"/><stop offset="1" stop-color="#07151d"/></radialGradient><filter id="b"><feGaussianBlur stdDeviation="15"/></filter></defs><rect width="1800" height="1100" fill="url(#a)"/><g opacity=".24" fill="none" stroke="#d9f6f8" stroke-width="3"><path d="M720 0c180 190 20 350 220 510s460 160 600 590"/><path d="M960 0c-110 210 130 300 110 510S900 820 1030 1100"/><path d="M1320 0c-150 210 70 330-40 510s-290 260-180 590"/></g><g opacity=".27" filter="url(#b)"><circle cx="1200" cy="350" r="170" fill="#8be4ea"/><circle cx="1460" cy="650" r="210" fill="#f37065"/><circle cx="1030" cy="790" r="150" fill="#e6c76d"/></g><g fill="none" stroke="#edf9fa" opacity=".28" stroke-width="4"><path d="M920 155c200-95 475-30 590 160s55 490-170 615-548 45-650-170-10-490 230-605Z"/><path d="M1080 275c130-58 315 10 370 150s-25 330-190 385-350-50-365-220 55-255 185-315Z"/></g><g fill="#f3796e"><circle cx="1040" cy="210" r="10"/><circle cx="1160" cy="270" r="8"/><circle cx="1300" cy="340" r="12"/><circle cx="1430" cy="470" r="8"/><circle cx="1510" cy="620" r="11"/><circle cx="1320" cy="760" r="9"/><circle cx="1120" cy="870" r="12"/><circle cx="930" cy="730" r="8"/></g><g fill="#95e7ec"><circle cx="1000" cy="410" r="9"/><circle cx="1210" cy="430" r="11"/><circle cx="1430" cy="360" r="8"/><circle cx="1570" cy="730" r="11"/><circle cx="1370" cy="900" r="8"/><circle cx="1030" cy="950" r="11"/></g><g fill="#efd072"><circle cx="1120" cy="540" r="8"/><circle cx="1340" cy="570" r="12"/><circle cx="1490" cy="820" r="9"/><circle cx="1180" cy="980" r="8"/></g></svg>
