<svg xmlns="http://www.w3.org/2000/svg" viewBox="0 0 1800 950"><defs><linearGradient id="j" x1="0" x2="1"><stop offset="0" stop-color="#07151d"/><stop offset="1" stop-color="#275f69"/></linearGradient></defs><rect width="1800" height="950" fill="url(#j)"/><g fill="none" stroke="#b7e1e5" opacity=".24" stroke-width="4"><path d="M850 60c200 150 85 325 300 455s420 120 565 370"/><path d="M1120 0c-70 210 140 270 90 470s-250 245-180 480"/><path d="M1400 0c-110 160 60 270-35 430s-250 240-170 520"/></g><g fill="#f2766b"><circle cx="1120" cy="210" r="11"/><circle cx="1250" cy="300" r="8"/><circle cx="1420" cy="420" r="13"/><circle cx="1560" cy="630" r="9"/></g><g fill="#8be4ea"><circle cx="1080" cy="440" r="10"/><circle cx="1370" cy="260" r="12"/><circle cx="1480" cy="720" r="11"/><circle cx="1190" cy="790" r="9"/></g></svg>
