<svg xmlns="http://www.w3.org/2000/svg" viewBox="0 0 1200 900"><rect width="1200" height="900" fill="#edf4f5"/><path d="M570 120v270c-62-113-151-174-251-138-135 48-202 236-144 408 42 126 155 155 262 87 90-57 139-155 133-279V120Z" fill="#d3e6e9"/><path d="M630 120v270c62-113 151-174 251-138 135 48 202 236 144 408-42 126-155 155-262 87-90-57-139-155-133-279V120Z" fill="#d3e6e9"/><path d="M600 85v370" stroke="#246a74" stroke-width="26" stroke-linecap="round"/><path d="M600 280 438 435M600 280l162 155" stroke="#246a74" stroke-width="22" stroke-linecap="round"/><g fill="#b54136"><rect x="270" y="395" width="115" height="36" rx="18" transform="rotate(25 270 395)"/><rect x="825" y="360" width="140" height="36" rx="18" transform="rotate(-20 825 360)"/><rect x="780" y="610" width="105" height="34" rx="17" transform="rotate(35 780 610)"/><rect x="335" y="625" width="130" height="36" rx="18" transform="rotate(-28 335 625)"/></g><g fill="#ef9e96"><circle cx="270" cy="345" r="15"/><circle cx="910" cy="505" r="17"/><circle cx="405" cy="530" r="16"/><circle cx="720" cy="325" r="14"/></g></svg>
