<svg xmlns="http://www.w3.org/2000/svg" viewBox="0 0 1200 900"><rect width="1200" height="900" fill="#142b36"/><g stroke="#82c7ce" stroke-width="5" opacity=".58"><path d="M215 190 430 325 625 170 840 315 995 180"/><path d="M215 190 280 480 505 680 780 565 995 180"/><path d="M430 325 505 680M625 170 780 565M840 315 780 565"/></g><g><circle cx="215" cy="190" r="75" fill="#b54136"/><circle cx="430" cy="325" r="55" fill="#246a74"/><circle cx="625" cy="170" r="65" fill="#d7ae55"/><circle cx="840" cy="315" r="82" fill="#b54136"/><circle cx="995" cy="180" r="50" fill="#246a74"/><circle cx="280" cy="480" r="60" fill="#d7ae55"/><circle cx="505" cy="680" r="92" fill="#246a74"/><circle cx="780" cy="565" r="70" fill="#d7ae55"/></g><g fill="#fff" opacity=".9"><circle cx="200" cy="175" r="9"/><circle cx="230" cy="210" r="8"/><circle cx="418" cy="312" r="8"/><circle cx="638" cy="158" r="9"/><circle cx="815" cy="290" r="9"/><circle cx="865" cy="340" r="10"/><circle cx="983" cy="170" r="8"/><circle cx="505" cy="660" r="10"/><circle cx="775" cy="553" r="9"/></g></svg>
