<svg xmlns="http://www.w3.org/2000/svg" viewBox="0 0 1200 900"><rect width="1200" height="900" fill="#102630"/><g opacity=".45" stroke="#d3ecef" fill="none" stroke-width="3"><path d="M70 230C250 55 450 90 520 260s-50 330-270 340S5 405 70 230Z"/><path d="M560 130c205-90 480 25 535 235s-115 405-385 365-370-505-150-600Z"/></g><g fill="#246a74" opacity=".78"><circle cx="250" cy="275" r="105"/><circle cx="430" cy="540" r="150"/><circle cx="780" cy="300" r="135"/><circle cx="885" cy="610" r="165"/></g><g fill="#f2766b"><circle cx="215" cy="215" r="15"/><circle cx="290" cy="340" r="12"/><circle cx="385" cy="470" r="14"/><circle cx="500" cy="610" r="11"/><circle cx="735" cy="255" r="13"/><circle cx="860" cy="340" r="16"/><circle cx="940" cy="550" r="12"/><circle cx="840" cy="690" r="15"/></g><g fill="#efcf72"><circle cx="310" cy="540" r="13"/><circle cx="500" cy="405" r="11"/><circle cx="670" cy="480" r="14"/><circle cx="995" cy="720" r="11"/></g><g fill="#8ce4ea"><circle cx="170" cy="425" r="11"/><circle cx="430" cy="285" r="12"/><circle cx="625" cy="235" r="12"/><circle cx="1020" cy="420" r="13"/><circle cx="720" cy="725" r="11"/></g><g stroke="#fff" opacity=".12"><path d="M0 150h1200M0 300h1200M0 450h1200M0 600h1200M0 750h1200"/><path d="M150 0v900M300 0v900M450 0v900M600 0v900M750 0v900M900 0v900M1050 0v900"/></g></svg>
